<svg id="Capa_1" enable-background="new 0 0 512 512" height="512" viewBox="0 0 512 512" width="512" xmlns="http://www.w3.org/2000/svg"><g><g><path d="m256 112.877c-135.14 1.96-229.91 107.013-253.414 135.862-3.448 4.232-3.448 10.29 0 14.522 23.504 28.85 118.274 133.903 253.414 135.862 135.14-1.959 229.91-107.012 253.414-135.862 3.448-4.232 3.448-10.29 0-14.522-23.504-28.849-118.274-133.902-253.414-135.862z" fill="#b3dafe"/><path d="m509.418 263.265c-23.51 28.844-118.28 133.902-253.418 135.859-3.81-.052-7.579-.196-11.317-.412 129.103-7.404 219.25-107.416 242.091-135.447 3.45-4.232 3.45-10.298 0-14.53-22.84-28.031-112.987-128.043-242.091-135.447 3.738-.216 7.507-.36 11.317-.412 135.138 1.957 229.908 107.015 253.418 135.859 3.44 4.232 3.44 10.298 0 14.53z" fill="#8ac9fe"/><path d="m256 144.641c-108.62 1.525-184.791 83.263-203.683 105.71-2.771 3.293-2.771 8.006 0 11.299 18.892 22.447 95.063 104.185 203.683 105.71 108.62-1.525 184.791-83.263 203.683-105.71 2.771-3.293 2.771-8.006 0-11.299-18.892-22.447-95.063-104.186-203.683-105.71z" fill="#eaf6ff"/><path d="m459.68 261.648c-18.886 22.45-95.059 104.183-203.68 105.707-3.717-.051-7.394-.196-11.039-.433 102.731-6.611 174.393-83.597 192.641-105.274 2.77-3.295 2.77-8.001 0-11.297-18.248-21.677-89.91-98.663-192.641-105.274 3.645-.237 7.322-.381 11.039-.432 108.621 1.524 184.794 83.257 203.68 105.707 2.77 3.295 2.77 8.001 0 11.296z" fill="#d8ecfe"/><circle cx="256" cy="256" fill="#bc7c63" r="111.36"/><path d="m367.36 256.005c0 61.498-49.862 111.35-111.36 111.35-17.578 0-34.209-4.078-48.997-11.338 9.577 2.688 19.689 4.129 30.131 4.129 61.509 0 111.36-49.852 111.36-111.35 0-43.93-25.425-81.909-62.363-100.022 46.866 13.14 81.229 56.164 81.229 107.231z" fill="#aa6a51"/><circle cx="256" cy="256" fill="#7c4b37" r="74.05"/><path d="m330.051 256.005c0 40.892-33.159 74.041-74.051 74.041-20.06 0-38.246-7.981-51.592-20.925 10.504 5.705 22.542 8.949 35.332 8.949 40.892 0 74.051-33.149 74.051-74.051 0-20.822-8.599-39.646-22.439-53.095 23.047 12.542 38.699 36.978 38.699 65.081z" fill="#683a2a"/><g><circle cx="303.382" cy="210.919" fill="#edd9d3" r="46.249"/><path d="m349.629 210.921c0 25.539-20.709 46.247-46.247 46.247-15.539 0-29.297-7.672-37.68-19.432 6.457 3.419 13.82 5.355 21.625 5.355 25.538 0 46.247-20.709 46.247-46.247 0-9.989-3.172-19.247-8.557-26.805 14.643 7.754 24.612 23.15 24.612 40.882z" fill="#e5c7be"/></g></g><g><path d="m66.203 400.279c-3.463 12.59-14.016 36.131-45.606 48.699-1.456.579-1.456 2.615 0 3.194 31.59 12.569 42.142 36.109 45.606 48.699.461 1.677 2.831 1.677 3.292 0 3.463-12.59 14.016-36.131 45.606-48.699 1.456-.579 1.456-2.615 0-3.194-31.59-12.569-42.142-36.109-45.606-48.699-.461-1.677-2.83-1.677-3.292 0z" fill="#fec165"/><path d="m115.106 452.178c-31.59 12.56-42.145 36.109-45.614 48.69-.456 1.686-2.832 1.686-3.288 0-1.591-5.781-4.678-13.864-10.608-22.139 8.596-11.77 10.502-14.798 26.728-26.604 1.228-.894 1.285-2.287 0-3.097-14.475-9.129-20.013-16.888-26.728-26.604 5.93-8.274 9.017-16.357 10.608-22.138.456-1.687 2.832-1.687 3.288 0 3.469 12.581 14.023 36.13 45.614 48.69 1.454.582 1.454 2.618 0 3.202z" fill="#fdb441"/><path d="m431.259 11.413c-4.243 15.422-17.169 44.258-55.865 59.654-1.783.71-1.783 3.203 0 3.912 38.696 15.396 51.622 44.232 55.865 59.654.565 2.054 3.468 2.054 4.033 0 4.242-15.422 17.169-44.258 55.865-59.654 1.783-.71 1.783-3.203 0-3.912-38.696-15.396-51.622-44.232-55.865-59.654-.565-2.055-3.468-2.055-4.033 0z" fill="#fec165"/><path d="m491.153 74.983c-38.687 15.392-51.618 44.224-55.861 59.648-.562 2.058-3.469 2.058-4.031 0-1.718-6.237-4.848-14.66-10.523-23.496 12.537-15.491 12.537-21.502 35.203-36.157 1.619-1.047 1.676-2.96 0-3.914-22.666-12.901-26.834-23.12-35.203-36.157 5.675-8.836 8.804-17.259 10.523-23.496.562-2.058 3.469-2.058 4.031 0 4.243 15.424 17.174 44.256 55.861 59.658 1.782.711 1.782 3.204 0 3.914z" fill="#fdb441"/></g></g></svg>