<?xml version="1.0" encoding="iso-8859-1"?>
<!-- Generator: Adobe Illustrator 19.0.0, SVG Export Plug-In . SVG Version: 6.00 Build 0)  -->
<svg version="1.1" id="Capa_1" xmlns="http://www.w3.org/2000/svg" xmlns:xlink="http://www.w3.org/1999/xlink" x="0px" y="0px"
	 viewBox="0 0 512 512" style="enable-background:new 0 0 512 512;" xml:space="preserve">
<path style="fill:#FD003A;" d="M355,123.935l-120-90c-9.6-7.2-24-0.3-24,12.001v45h-45c-90.901,0-166,74.099-166,165
	c0,90.899,75.099,165,166,165h39.901c8.399,0,15-6.601,15-15v-60c0-8.401-6.601-15-15-15H166c-41.4,0-76-33.6-76-75s34.6-75,76-75
	h45v45c0,12.299,14.399,19.499,24,11.999l120-90C363.1,141.936,363.1,129.935,355,123.935z"/>
<path style="fill:#32D736;" d="M346,90.936h-35.099L355,123.935c8.101,5.4,8.101,18.3,0,24l-44.099,33.001H346c41.4,0,76,33.6,76,75
	s-34.6,75-76,75h-45v-45c0-11.7-13.5-19.801-24-12.001c-89.7,67.5-64.501,48.6-120,90c-8.101,5.4-8.101,18.3,0,24
	c55.499,41.4,30.3,22.5,120,90c9.6,7.5,24,0.3,24-11.999v-45h45c90.901,0,166-74.101,166-165C512,165.035,436.901,90.936,346,90.936
	z"/>
<path style="fill:#E50027;" d="M220.901,345.936v60c0,8.399-6.601,15-15,15H166c-90.901,0-166-74.101-166-165h90
	c0,41.4,34.6,75,76,75h39.901C214.3,330.936,220.901,337.535,220.901,345.936z"/>
<path style="fill:#10BB67;" d="M512,255.936c0,90.899-75.099,165-166,165h-45v45c0,12.299-14.399,19.499-24,11.999
	c-89.7-67.5-64.501-48.6-120-90c-8.101-5.7-8.101-18.6,0-24c55.499-41.4,30.3-22.5,120-90c10.499-7.8,24,0.3,24,12.001v45h45
	c41.4,0,76-33.6,76-75H512z"/>
<g>
</g>
<g>
</g>
<g>
</g>
<g>
</g>
<g>
</g>
<g>
</g>
<g>
</g>
<g>
</g>
<g>
</g>
<g>
</g>
<g>
</g>
<g>
</g>
<g>
</g>
<g>
</g>
<g>
</g>
</svg>
